<svg width="36" height="27" viewBox="0 0 36 27" fill="none" xmlns="http://www.w3.org/2000/svg">
<path d="M34.5279 8.9029C34.7959 8.68672 35.1946 8.88895 35.1946 9.23066V23.4916C35.1946 25.3396 33.7167 26.8389 31.8951 26.8389H3.2995C1.4779 26.8389 0 25.3396 0 23.4916V9.23763C0 8.88896 0.391815 8.69369 0.666773 8.90987C2.20654 10.1233 4.2481 11.6644 11.2595 16.8319C12.7099 17.9058 15.1571 20.1652 17.5973 20.1513C20.0513 20.1722 22.5466 17.8639 23.942 16.8319C30.9534 11.6644 32.9881 10.1163 34.5279 8.9029ZM17.5973 17.9128C19.1921 17.9407 21.488 15.8765 22.6428 15.0257C31.7645 8.31015 32.4588 7.72437 34.5622 6.05071C34.9609 5.7369 35.1946 5.24875 35.1946 4.7327V3.40773C35.1946 1.55973 33.7167 0.0604095 31.8951 0.0604095H3.2995C1.4779 0.0604095 0 1.55973 0 3.40773V4.7327C0 5.24875 0.233714 5.72993 0.632403 6.05071C2.73583 7.71739 3.4301 8.31015 12.5518 15.0257C13.7067 15.8765 16.0026 17.9407 17.5973 17.9128Z" fill="white" fill-opacity="0.1"/>
</svg>
