<svg width="23" height="30" viewBox="0 0 23 30" fill="none" xmlns="http://www.w3.org/2000/svg">
<path d="M22.9999 7.10662V7.45973H15.604V0H15.9541C16.3218 1.93951e-06 16.6745 0.147354 16.9346 0.409644L22.5937 6.11756C22.8538 6.37988 22.9999 6.73565 22.9999 7.10662ZM15.1417 9.32466C14.379 9.32466 13.755 8.69525 13.755 7.92596V0H2.19876C1.43287 0 0.812012 0.626209 0.812012 1.3987V28.4402C0.812012 29.2127 1.43287 29.8389 2.19876 29.8389H21.6132C22.3791 29.8389 22.9999 29.2127 22.9999 28.4402V9.32466H15.1417ZM7.31498 10.2571C8.84675 10.2571 10.0885 11.5096 10.0885 13.0545C10.0885 14.5995 8.84675 15.8519 7.31498 15.8519C5.7832 15.8519 4.54149 14.5995 4.54149 13.0545C4.54149 11.5096 5.78326 10.2571 7.31498 10.2571ZM19.3334 24.2441H4.54149L4.56951 21.4185L6.85273 19.1156C7.12349 18.8425 7.53449 18.8707 7.80525 19.1438L10.0885 21.4467L16.0697 15.414C16.3404 15.1409 16.7795 15.1409 17.0503 15.414L19.3334 17.7169V24.2441Z" fill="white" fill-opacity="0.1"/>
</svg>
