<svg width="23" height="30" viewBox="0 0 23 30" fill="none" xmlns="http://www.w3.org/2000/svg">
<path d="M11.3399 15.8053C11.8484 15.8053 12.2355 15.9627 12.5128 16.2774C13.0675 16.9126 13.0791 18.1831 12.5013 18.8475C12.2182 19.1738 11.8137 19.3428 11.2821 19.3428H9.7278V15.8053H11.3399ZM21.9312 6.11931L16.2686 0.407954C16.0086 0.145698 15.6561 0 15.2863 0H14.9397V7.45973H22.3356V7.10423C22.3356 6.73707 22.1912 6.38157 21.9312 6.11931ZM13.0907 7.92596V0H1.53445C0.765962 0 0.147705 0.623587 0.147705 1.3987V28.4402C0.147705 29.2153 0.765962 29.8389 1.53445 29.8389H20.9489C21.7174 29.8389 22.3356 29.2153 22.3356 28.4402V9.32466H14.4774C13.7147 9.32466 13.0907 8.69525 13.0907 7.92596ZM16.1531 17.5537C16.1531 22.8163 11.0221 22.0761 9.73358 22.0761V25.4097C9.73358 25.7944 9.42156 26.1091 9.04021 26.1091H7.26055C6.8792 26.1091 6.56718 25.7944 6.56718 25.4097V13.7655C6.56718 13.3809 6.8792 13.0662 7.26055 13.0662H11.9408C14.5121 13.0662 16.1531 14.9777 16.1531 17.5537Z" fill="white" fill-opacity="0.1"/>
</svg>
